solid Mesh
 facet normal 0 0 1
  outer loop
   vertex -0.0942333 -0.0805983 0
   vertex -0.0895226 -0.0858004 0
   vertex -0.084525 -0.0907277 0
  endloop
 endfacet
 facet normal 0 0 1
  outer loop
   vertex -0.102735 -0.0694369 0
   vertex -0.0942333 -0.0805983 0
   vertex -0.084525 -0.0907277 0
  endloop
 endfacet
 facet normal 0 0 1
  outer loop
   vertex -0.102735 -0.0694369 0
   vertex -0.0986423 -0.0751379 0
   vertex -0.0942333 -0.0805983 0
  endloop
 endfacet
 facet normal 0 0 1
  outer loop
   vertex -0.102735 -0.0694369 0
   vertex -0.084525 -0.0907277 0
   vertex -0.0792567 -0.0953644 0
  endloop
 endfacet
 facet normal 0 0 1
  outer loop
   vertex -0.0679761 -0.103707 0
   vertex -0.0792567 -0.0953644 0
   vertex -0.0737345 -0.0996956 0
  endloop
 endfacet
 facet normal 0 0 1
  outer loop
   vertex -0.109922 -0.0573865 0
   vertex -0.106499 -0.0635134 0
   vertex -0.102735 -0.0694369 0
  endloop
 endfacet
 facet normal 0 0 1
  outer loop
   vertex -0.0494717 -0.113704 0
   vertex -0.0792567 -0.0953644 0
   vertex -0.0679761 -0.103707 0
  endloop
 endfacet
 facet normal 0 0 1
  outer loop
   vertex -0.0494717 -0.113704 0
   vertex -0.0679761 -0.103707 0
   vertex -0.062 -0.107387 0
  endloop
 endfacet
 facet normal 0 0 1
  outer loop
   vertex -0.0494717 -0.113704 0
   vertex -0.062 -0.107387 0
   vertex -0.0558253 -0.110723 0
  endloop
 endfacet
 facet normal 0 0 1
  outer loop
   vertex -0.115701 -0.0446014 0
   vertex -0.112992 -0.0510758 0
   vertex -0.109922 -0.0573865 0
  endloop
 endfacet
 facet normal 0 0 1
  outer loop
   vertex -0.0429597 -0.116321 0
   vertex -0.102735 -0.0694369 0
   vertex -0.0792567 -0.0953644 0
  endloop
 endfacet
 facet normal 0 0 1
  outer loop
   vertex -0.0429597 -0.116321 0
   vertex -0.109922 -0.0573865 0
   vertex -0.102735 -0.0694369 0
  endloop
 endfacet
 facet normal 0 0 1
  outer loop
   vertex -0.0429597 -0.116321 0
   vertex -0.0792567 -0.0953644 0
   vertex -0.0494717 -0.113704 0
  endloop
 endfacet
 facet normal 0 0 1
  outer loop
   vertex -0.0429597 -0.116321 0
   vertex -0.115701 -0.0446014 0
   vertex -0.109922 -0.0573865 0
  endloop
 endfacet
 facet normal 0 0 1
  outer loop
   vertex -0.119999 -0.0312453 0
   vertex -0.118039 -0.0379842 0
   vertex -0.115701 -0.0446014 0
  endloop
 endfacet
 facet normal 0 0 1
  outer loop
   vertex -0.0226835 -0.121908 0
   vertex -0.03631 -0.118565 0
   vertex -0.0295441 -0.120429 0
  endloop
 endfacet
 facet normal 0 0 1
  outer loop
   vertex -0.12276 -0.0174891 0
   vertex -0.115701 -0.0446014 0
   vertex -0.0429597 -0.116321 0
  endloop
 endfacet
 facet normal 0 0 1
  outer loop
   vertex -0.12276 -0.0174891 0
   vertex -0.119999 -0.0312453 0
   vertex -0.115701 -0.0446014 0
  endloop
 endfacet
 facet normal 0 0 1
  outer loop
   vertex -0.12276 -0.0174891 0
   vertex -0.121574 -0.0244063 0
   vertex -0.119999 -0.0312453 0
  endloop
 endfacet
 facet normal 0 0 1
  outer loop
   vertex -0.12276 -0.0174891 0
   vertex -0.0429597 -0.116321 0
   vertex -0.03631 -0.118565 0
  endloop
 endfacet
 facet normal 0 0 1
  outer loop
   vertex -0.0087665 -0.12369 0
   vertex -0.0226835 -0.121908 0
   vertex -0.0157502 -0.122996 0
  endloop
 endfacet
 facet normal 0 0 1
  outer loop
   vertex -0.0017547 -0.123988 0
   vertex -0.03631 -0.118565 0
   vertex -0.0226835 -0.121908 0
  endloop
 endfacet
 facet normal 0 0 1
  outer loop
   vertex -0.0017547 -0.123988 0
   vertex -0.0226835 -0.121908 0
   vertex -0.0087665 -0.12369 0
  endloop
 endfacet
 facet normal 0 0 1
  outer loop
   vertex -0.123553 0.0105159 0
   vertex -0.12395 0.00350906 0
   vertex -0.12395 -0.00350906 0
  endloop
 endfacet
 facet normal 0 0 1
  outer loop
   vertex 0.0122633 -0.123392 0
   vertex -0.0017547 -0.123988 0
   vertex 0.00526271 -0.123888 0
  endloop
 endfacet
 facet normal 0 0 1
  outer loop
   vertex -0.121574 0.0244063 0
   vertex -0.12276 0.0174891 0
   vertex -0.123553 0.0105159 0
  endloop
 endfacet
 facet normal 0 0 1
  outer loop
   vertex -0.121574 0.0244063 0
   vertex -0.123553 0.0105159 0
   vertex -0.12395 -0.00350906 0
  endloop
 endfacet
 facet normal 0 0 1
  outer loop
   vertex 0.0329402 -0.119545 0
   vertex -0.0017547 -0.123988 0
   vertex 0.0122633 -0.123392 0
  endloop
 endfacet
 facet normal 0 0 1
  outer loop
   vertex 0.0329402 -0.119545 0
   vertex 0.0122633 -0.123392 0
   vertex 0.0192245 -0.122501 0
  endloop
 endfacet
 facet normal 0 0 1
  outer loop
   vertex 0.0329402 -0.119545 0
   vertex 0.0192245 -0.122501 0
   vertex 0.0261242 -0.121217 0
  endloop
 endfacet
 facet normal 0 0 1
  outer loop
   vertex -0.118039 0.0379842 0
   vertex -0.119999 0.0312453 0
   vertex -0.121574 0.0244063 0
  endloop
 endfacet
 facet normal 0 0 1
  outer loop
   vertex -0.115701 0.0446014 0
   vertex -0.118039 0.0379842 0
   vertex -0.121574 0.0244063 0
  endloop
 endfacet
 facet normal 0 0 1
  outer loop
   vertex 0.0462342 -0.115058 0
   vertex 0.0329402 -0.119545 0
   vertex 0.0396507 -0.11749 0
  endloop
 endfacet
 facet normal 0 0 1
  outer loop
   vertex -0.112992 0.0510758 0
   vertex -0.12395 -0.00350906 0
   vertex -0.123553 -0.0105159 0
  endloop
 endfacet
 facet normal 0 0 1
  outer loop
   vertex -0.112992 0.0510758 0
   vertex -0.123553 -0.0105159 0
   vertex -0.12276 -0.0174891 0
  endloop
 endfacet
 facet normal 0 0 1
  outer loop
   vertex -0.112992 0.0510758 0
   vertex -0.12276 -0.0174891 0
   vertex -0.03631 -0.118565 0
  endloop
 endfacet
 facet normal 0 0 1
  outer loop
   vertex -0.112992 0.0510758 0
   vertex -0.121574 0.0244063 0
   vertex -0.12395 -0.00350906 0
  endloop
 endfacet
 facet normal 0 0 1
  outer loop
   vertex -0.112992 0.0510758 0
   vertex -0.115701 0.0446014 0
   vertex -0.121574 0.0244063 0
  endloop
 endfacet
 facet normal 0 0 1
  outer loop
   vertex 0.0650141 -0.10559 0
   vertex 0.0462342 -0.115058 0
   vertex 0.0526696 -0.112258 0
  endloop
 endfacet
 facet normal 0 0 1
  outer loop
   vertex 0.0650141 -0.10559 0
   vertex 0.0526696 -0.112258 0
   vertex 0.0589362 -0.109099 0
  endloop
 endfacet
 facet normal 0 0 1
  outer loop
   vertex 0.0765263 -0.0975691 0
   vertex 0.0650141 -0.10559 0
   vertex 0.0708837 -0.101742 0
  endloop
 endfacet
 facet normal 0 0 1
  outer loop
   vertex -0.0942333 0.0805983 0
   vertex -0.0986423 0.0751379 0
   vertex -0.102735 0.0694369 0
  endloop
 endfacet
 facet normal 0 0 1
  outer loop
   vertex -0.0942333 0.0805983 0
   vertex -0.102735 0.0694369 0
   vertex -0.106499 0.0635134 0
  endloop
 endfacet
 facet normal 0 0 1
  outer loop
   vertex -0.0942333 0.0805983 0
   vertex -0.106499 0.0635134 0
   vertex -0.109922 0.0573865 0
  endloop
 endfacet
 facet normal 0 0 1
  outer loop
   vertex -0.0942333 0.0805983 0
   vertex -0.109922 0.0573865 0
   vertex -0.112992 0.0510758 0
  endloop
 endfacet
 facet normal 0 0 1
  outer loop
   vertex 0.0819237 -0.0930834 0
   vertex 0.0462342 -0.115058 0
   vertex 0.0650141 -0.10559 0
  endloop
 endfacet
 facet normal 0 0 1
  outer loop
   vertex 0.0819237 -0.0930834 0
   vertex 0.0650141 -0.10559 0
   vertex 0.0765263 -0.0975691 0
  endloop
 endfacet
 facet normal 0 0 1
  outer loop
   vertex 0.0819237 -0.0930834 0
   vertex -0.0017547 -0.123988 0
   vertex 0.0329402 -0.119545 0
  endloop
 endfacet
 facet normal 0 0 1
  outer loop
   vertex 0.0819237 -0.0930834 0
   vertex 0.0329402 -0.119545 0
   vertex 0.0462342 -0.115058 0
  endloop
 endfacet
 facet normal 0 0 1
  outer loop
   vertex -0.084525 0.0907277 0
   vertex -0.0895226 0.0858004 0
   vertex -0.0942333 0.0805983 0
  endloop
 endfacet
 facet normal 0 0 1
  outer loop
   vertex 0.0964764 -0.0778993 0
   vertex 0.0819237 -0.0930834 0
   vertex 0.0870586 -0.0882994 0
  endloop
 endfacet
 facet normal 0 0 1
  outer loop
   vertex 0.0964764 -0.0778993 0
   vertex 0.0870586 -0.0882994 0
   vertex 0.0919148 -0.0832327 0
  endloop
 endfacet
 facet normal 0 0 1
  outer loop
   vertex 0.100729 -0.0723164 0
   vertex 0.0819237 -0.0930834 0
   vertex 0.0964764 -0.0778993 0
  endloop
 endfacet
 facet normal 0 0 1
  outer loop
   vertex -0.0679761 0.103707 0
   vertex -0.0737345 0.0996956 0
   vertex -0.0792567 0.0953644 0
  endloop
 endfacet
 facet normal 0 0 1
  outer loop
   vertex -0.0679761 0.103707 0
   vertex -0.0792567 0.0953644 0
   vertex -0.084525 0.0907277 0
  endloop
 endfacet
 facet normal 0 0 1
  outer loop
   vertex -0.0558253 0.110723 0
   vertex -0.084525 0.0907277 0
   vertex -0.0942333 0.0805983 0
  endloop
 endfacet
 facet normal 0 0 1
  outer loop
   vertex -0.0558253 0.110723 0
   vertex -0.0679761 0.103707 0
   vertex -0.084525 0.0907277 0
  endloop
 endfacet
 facet normal 0 0 1
  outer loop
   vertex -0.0558253 0.110723 0
   vertex -0.062 0.107387 0
   vertex -0.0679761 0.103707 0
  endloop
 endfacet
 facet normal 0 0 1
  outer loop
   vertex -0.0494717 0.113704 0
   vertex 0.100729 -0.0723164 0
   vertex 0.104659 -0.0665018 0
  endloop
 endfacet
 facet normal 0 0 1
  outer loop
   vertex -0.0494717 0.113704 0
   vertex -0.0558253 0.110723 0
   vertex -0.0942333 0.0805983 0
  endloop
 endfacet
 facet normal 0 0 1
  outer loop
   vertex -0.0494717 0.113704 0
   vertex -0.0942333 0.0805983 0
   vertex -0.112992 0.0510758 0
  endloop
 endfacet
 facet normal 0 0 1
  outer loop
   vertex -0.0494717 0.113704 0
   vertex -0.0017547 -0.123988 0
   vertex 0.0819237 -0.0930834 0
  endloop
 endfacet
 facet normal 0 0 1
  outer loop
   vertex -0.0494717 0.113704 0
   vertex 0.0819237 -0.0930834 0
   vertex 0.100729 -0.0723164 0
  endloop
 endfacet
 facet normal 0 0 1
  outer loop
   vertex -0.0494717 0.113704 0
   vertex -0.112992 0.0510758 0
   vertex -0.03631 -0.118565 0
  endloop
 endfacet
 facet normal 0 0 1
  outer loop
   vertex -0.0494717 0.113704 0
   vertex -0.03631 -0.118565 0
   vertex -0.0017547 -0.123988 0
  endloop
 endfacet
 facet normal 0 0 1
  outer loop
   vertex 0.114392 -0.0478577 0
   vertex 0.104659 -0.0665018 0
   vertex 0.108254 -0.0604742 0
  endloop
 endfacet
 facet normal 0 0 1
  outer loop
   vertex 0.114392 -0.0478577 0
   vertex 0.108254 -0.0604742 0
   vertex 0.111502 -0.0542529 0
  endloop
 endfacet
 facet normal 0 0 1
  outer loop
   vertex -0.03631 0.118565 0
   vertex -0.0429597 0.116321 0
   vertex -0.0494717 0.113704 0
  endloop
 endfacet
 facet normal 0 0 1
  outer loop
   vertex 0.119067 -0.0346286 0
   vertex 0.114392 -0.0478577 0
   vertex 0.116917 -0.0413093 0
  endloop
 endfacet
 facet normal 0 0 1
  outer loop
   vertex -0.0295441 0.120429 0
   vertex -0.03631 0.118565 0
   vertex -0.0494717 0.113704 0
  endloop
 endfacet
 facet normal 0 0 1
  outer loop
   vertex 0.122216 -0.0209561 0
   vertex 0.119067 -0.0346286 0
   vertex 0.120835 -0.0278369 0
  endloop
 endfacet
 facet normal 0 0 1
  outer loop
   vertex 0.122216 -0.0209561 0
   vertex 0.114392 -0.0478577 0
   vertex 0.119067 -0.0346286 0
  endloop
 endfacet
 facet normal 0 0 1
  outer loop
   vertex -0.0157502 0.122996 0
   vertex -0.0226835 0.121908 0
   vertex -0.0295441 0.120429 0
  endloop
 endfacet
 facet normal 0 0 1
  outer loop
   vertex -0.0157502 0.122996 0
   vertex -0.0494717 0.113704 0
   vertex 0.104659 -0.0665018 0
  endloop
 endfacet
 facet normal 0 0 1
  outer loop
   vertex -0.0157502 0.122996 0
   vertex -0.0295441 0.120429 0
   vertex -0.0494717 0.113704 0
  endloop
 endfacet
 facet normal 0 0 1
  outer loop
   vertex 0.124 0 0
   vertex 0.122216 -0.0209561 0
   vertex 0.123206 -0.0140081 0
  endloop
 endfacet
 facet normal 0 0 1
  outer loop
   vertex 0.124 0 0
   vertex 0.123206 -0.0140081 0
   vertex 0.123801 -0.00701531 0
  endloop
 endfacet
 facet normal 0 0 1
  outer loop
   vertex 0.124 0 0
   vertex 0.114392 -0.0478577 0
   vertex 0.122216 -0.0209561 0
  endloop
 endfacet
 facet normal 0 0 1
  outer loop
   vertex 0.0122633 0.123392 0
   vertex 0.00526271 0.123888 0
   vertex -0.0017547 0.123988 0
  endloop
 endfacet
 facet normal 0 0 1
  outer loop
   vertex 0.0122633 0.123392 0
   vertex -0.0017547 0.123988 0
   vertex -0.0087665 0.12369 0
  endloop
 endfacet
 facet normal 0 0 1
  outer loop
   vertex 0.0122633 0.123392 0
   vertex -0.0087665 0.12369 0
   vertex -0.0157502 0.122996 0
  endloop
 endfacet
 facet normal 0 0 1
  outer loop
   vertex 0.123206 0.0140081 0
   vertex 0.124 0 0
   vertex 0.123801 0.00701531 0
  endloop
 endfacet
 facet normal 0 0 1
  outer loop
   vertex 0.0261242 0.121217 0
   vertex 0.123206 0.0140081 0
   vertex 0.122216 0.0209561 0
  endloop
 endfacet
 facet normal 0 0 1
  outer loop
   vertex 0.0261242 0.121217 0
   vertex 0.0192245 0.122501 0
   vertex 0.0122633 0.123392 0
  endloop
 endfacet
 facet normal 0 0 1
  outer loop
   vertex 0.0261242 0.121217 0
   vertex 0.104659 -0.0665018 0
   vertex 0.114392 -0.0478577 0
  endloop
 endfacet
 facet normal 0 0 1
  outer loop
   vertex 0.0261242 0.121217 0
   vertex -0.0157502 0.122996 0
   vertex 0.104659 -0.0665018 0
  endloop
 endfacet
 facet normal 0 0 1
  outer loop
   vertex 0.0261242 0.121217 0
   vertex 0.0122633 0.123392 0
   vertex -0.0157502 0.122996 0
  endloop
 endfacet
 facet normal 0 0 1
  outer loop
   vertex 0.0261242 0.121217 0
   vertex 0.114392 -0.0478577 0
   vertex 0.124 0 0
  endloop
 endfacet
 facet normal 0 0 1
  outer loop
   vertex 0.0261242 0.121217 0
   vertex 0.124 0 0
   vertex 0.123206 0.0140081 0
  endloop
 endfacet
 facet normal 0 0 1
  outer loop
   vertex 0.0396507 0.11749 0
   vertex 0.0329402 0.119545 0
   vertex 0.0261242 0.121217 0
  endloop
 endfacet
 facet normal 0 0 1
  outer loop
   vertex 0.116917 0.0413093 0
   vertex 0.120835 0.0278369 0
   vertex 0.119067 0.0346286 0
  endloop
 endfacet
 facet normal 0 0 1
  outer loop
   vertex 0.111502 0.0542529 0
   vertex 0.0396507 0.11749 0
   vertex 0.0261242 0.121217 0
  endloop
 endfacet
 facet normal 0 0 1
  outer loop
   vertex 0.111502 0.0542529 0
   vertex 0.120835 0.0278369 0
   vertex 0.116917 0.0413093 0
  endloop
 endfacet
 facet normal 0 0 1
  outer loop
   vertex 0.111502 0.0542529 0
   vertex 0.122216 0.0209561 0
   vertex 0.120835 0.0278369 0
  endloop
 endfacet
 facet normal 0 0 1
  outer loop
   vertex 0.111502 0.0542529 0
   vertex 0.116917 0.0413093 0
   vertex 0.114392 0.0478577 0
  endloop
 endfacet
 facet normal 0 0 1
  outer loop
   vertex 0.111502 0.0542529 0
   vertex 0.0462342 0.115058 0
   vertex 0.0396507 0.11749 0
  endloop
 endfacet
 facet normal 0 0 1
  outer loop
   vertex 0.111502 0.0542529 0
   vertex 0.0261242 0.121217 0
   vertex 0.122216 0.0209561 0
  endloop
 endfacet
 facet normal 0 0 1
  outer loop
   vertex 0.0589362 0.109099 0
   vertex 0.0526696 0.112258 0
   vertex 0.0462342 0.115058 0
  endloop
 endfacet
 facet normal 0 0 1
  outer loop
   vertex 0.0650141 0.10559 0
   vertex 0.0462342 0.115058 0
   vertex 0.111502 0.0542529 0
  endloop
 endfacet
 facet normal 0 0 1
  outer loop
   vertex 0.0650141 0.10559 0
   vertex 0.0589362 0.109099 0
   vertex 0.0462342 0.115058 0
  endloop
 endfacet
 facet normal 0 0 1
  outer loop
   vertex 0.104659 0.0665018 0
   vertex 0.111502 0.0542529 0
   vertex 0.108254 0.0604742 0
  endloop
 endfacet
 facet normal 0 0 1
  outer loop
   vertex 0.0765263 0.0975691 0
   vertex 0.0650141 0.10559 0
   vertex 0.111502 0.0542529 0
  endloop
 endfacet
 facet normal 0 0 1
  outer loop
   vertex 0.0765263 0.0975691 0
   vertex 0.0708837 0.101742 0
   vertex 0.0650141 0.10559 0
  endloop
 endfacet
 facet normal 0 0 1
  outer loop
   vertex 0.0919148 0.0832327 0
   vertex 0.104659 0.0665018 0
   vertex 0.100729 0.0723164 0
  endloop
 endfacet
 facet normal 0 0 1
  outer loop
   vertex 0.0919148 0.0832327 0
   vertex 0.100729 0.0723164 0
   vertex 0.0964764 0.0778993 0
  endloop
 endfacet
 facet normal 0 0 1
  outer loop
   vertex 0.0870586 0.0882994 0
   vertex 0.111502 0.0542529 0
   vertex 0.104659 0.0665018 0
  endloop
 endfacet
 facet normal 0 0 1
  outer loop
   vertex 0.0870586 0.0882994 0
   vertex 0.0819237 0.0930834 0
   vertex 0.0765263 0.0975691 0
  endloop
 endfacet
 facet normal 0 0 1
  outer loop
   vertex 0.0870586 0.0882994 0
   vertex 0.0765263 0.0975691 0
   vertex 0.111502 0.0542529 0
  endloop
 endfacet
 facet normal 0 0 1
  outer loop
   vertex 0.0870586 0.0882994 0
   vertex 0.104659 0.0665018 0
   vertex 0.0919148 0.0832327 0
  endloop
 endfacet
endsolid Mesh
